<?xml version="1.0" standalone="no"?>
<!DOCTYPE svg PUBLIC "-//W3C//DTD SVG 20010904//EN"
 "http://www.w3.org/TR/2001/REC-SVG-20010904/DTD/svg10.dtd">
<svg version="1.0" xmlns="http://www.w3.org/2000/svg"
 width="82.000000pt" height="81.000000pt" viewBox="0 0 82.000000 81.000000"
 preserveAspectRatio="xMidYMid meet">

<g transform="translate(0.000000,81.000000) scale(0.100000,-0.100000)"
fill="#000000" stroke="none">
<path d="M430 715 c-47 -6 -94 -16 -105 -22 -11 -7 -46 -23 -77 -37 -48 -20
-63 -34 -90 -78 -31 -48 -50 -92 -65 -142 -5 -16 -3 -18 13 -10 10 5 48 9 84
9 39 0 79 7 100 17 53 24 114 32 128 16 16 -20 51 -188 40 -194 -5 -3 -25 -3
-46 0 -35 6 -40 3 -102 -59 -56 -56 -70 -65 -101 -65 -47 0 -66 -21 -51 -55
10 -22 9 -24 -21 -27 -20 -2 -32 -8 -32 -18 0 -13 42 -15 310 -17 171 -2 316
1 324 6 19 12 5 31 -25 31 -20 0 -24 5 -24 29 0 30 -23 88 -54 134 -17 25 -24
27 -82 27 -58 0 -64 2 -68 23 -3 12 -12 51 -20 87 -26 110 -25 113 14 132 19
10 56 18 81 18 30 0 51 6 60 16 18 22 84 54 111 54 20 1 18 5 -22 41 -91 81
-154 100 -280 84z m139 -20 c47 -16 131 -71 131 -85 0 -5 -11 -12 -25 -16 -13
-3 -29 -12 -36 -20 -13 -16 -39 -19 -39 -4 0 22 -46 73 -88 97 -32 19 -40 28
-30 34 19 12 40 11 87 -6z m-79 -40 c32 -16 90 -72 90 -86 0 -21 -5 -25 -54
-35 -28 -6 -64 -16 -81 -22 -16 -6 -52 -15 -80 -20 -27 -6 -60 -13 -72 -17
-20 -6 -23 -4 -23 20 0 37 55 150 85 173 21 17 32 18 66 11 23 -5 54 -16 69
-24z m-180 1 c0 -2 -11 -28 -24 -57 -14 -30 -30 -76 -37 -102 -8 -35 -16 -47
-26 -43 -8 3 -34 6 -58 6 l-44 0 20 47 c29 69 62 107 111 132 41 20 58 25 58
17z m193 -423 c-7 -2 -21 -2 -30 0 -10 3 -4 5 12 5 17 0 24 -2 18 -5z m134
-38 c12 -22 25 -52 28 -67 7 -26 5 -28 -26 -28 -19 0 -29 4 -22 8 8 5 8 15 -2
40 -8 17 -16 32 -19 32 -3 0 -26 -18 -51 -40 l-46 -40 -158 0 c-87 0 -161 3
-164 7 -4 3 -2 12 4 20 8 9 40 14 103 15 50 1 72 3 49 5 -24 2 -43 8 -43 13 0
14 51 70 64 70 7 0 25 -13 41 -30 16 -17 34 -30 41 -30 7 0 39 16 71 35 74 45
101 43 130 -10z m-179 19 c16 -5 16 -6 -1 -15 -13 -8 -22 -7 -33 1 -18 16 -18
31 1 25 8 -3 23 -8 33 -11z m142 -74 c0 -5 -8 -10 -17 -10 -15 0 -16 2 -3 10
19 12 20 12 20 0z m-37 -50 c4 -17 0 -20 -24 -20 -31 0 -36 9 -17 28 18 18 35
15 41 -8z"/>
<path d="M584 372 c-6 -4 -16 -17 -23 -30 -27 -51 44 -97 82 -54 22 24 21 55
-1 75 -20 18 -40 21 -58 9z m46 -27 c17 -21 3 -57 -22 -53 -30 4 -45 32 -29
52 17 20 35 20 51 1z"/>
</g>
</svg>
